<svg xmlns="http://www.w3.org/2000/svg" viewBox="0 0 720 480" fill="none" role="img" aria-label="Square Foot Roofing website preview">
  <defs>
    <clipPath id="sqfframe"><rect x="40" y="28" width="640" height="452" rx="18"/></clipPath>
    <linearGradient id="sqfsky" x1="0" y1="0" x2="0" y2="1">
      <stop offset="0" stop-color="#22303F"/><stop offset="1" stop-color="#141E2A"/>
    </linearGradient>
  </defs>
  <!-- backdrop card -->
  <rect width="720" height="480" rx="28" fill="#E9EAE6"/>
  <!-- browser window -->
  <g clip-path="url(#sqfframe)">
    <rect x="40" y="28" width="640" height="452" rx="18" fill="#FFFFFF"/>
    <!-- chrome bar -->
    <rect x="40" y="28" width="640" height="40" fill="#F1F1EE"/>
    <circle cx="66" cy="48" r="5" fill="#D9D9D4"/>
    <circle cx="84" cy="48" r="5" fill="#D9D9D4"/>
    <circle cx="102" cy="48" r="5" fill="#D9D9D4"/>
    <rect x="240" y="38" width="240" height="20" rx="10" fill="#FFFFFF"/>
    <circle cx="254" cy="48" r="4" fill="#E8862E"/>
    <rect x="266" y="44" width="150" height="8" rx="4" fill="#D5D5D0"/>
    <!-- site hero -->
    <rect x="40" y="68" width="640" height="224" fill="url(#sqfsky)"/>
    <!-- square-grid logo mark -->
    <g transform="translate(68, 86)">
      <rect width="15" height="15" rx="3" fill="#E8862E"/>
      <rect x="19" width="15" height="15" rx="3" fill="#FFFFFF" opacity="0.9"/>
      <rect y="19" width="15" height="15" rx="3" fill="#FFFFFF" opacity="0.9"/>
      <rect x="19" y="19" width="15" height="15" rx="3" fill="#FFFFFF" opacity="0.45"/>
    </g>
    <rect x="112" y="96" width="118" height="9" rx="4.5" fill="#FFFFFF"/>
    <!-- nav -->
    <rect x="446" y="94" width="46" height="10" rx="5" fill="#FFFFFF" opacity="0.4"/>
    <rect x="502" y="94" width="46" height="10" rx="5" fill="#FFFFFF" opacity="0.4"/>
    <rect x="558" y="88" width="96" height="24" rx="12" fill="#E8862E"/>
    <!-- headline -->
    <rect x="68" y="150" width="340" height="22" rx="11" fill="#FFFFFF"/>
    <rect x="68" y="182" width="256" height="22" rx="11" fill="#FFFFFF" opacity="0.6"/>
    <rect x="68" y="226" width="136" height="30" rx="15" fill="#E8862E"/>
    <rect x="214" y="226" width="136" height="30" rx="15" fill="#FFFFFF" opacity="0.18"/>
    <!-- roof measurement motif: house outline with grid squares -->
    <path d="M470 268 L560 200 L650 268 Z" fill="#2E4256"/>
    <path d="M488 268 L560 214 L632 268 Z" fill="#3A526B" opacity="0.9"/>
    <g stroke="#E8862E" stroke-width="1.6" opacity="0.95">
      <rect x="530" y="230" width="18" height="18"/>
      <rect x="552" y="230" width="18" height="18"/>
      <rect x="541" y="208" width="18" height="18"/>
    </g>
    <!-- content cards -->
    <rect x="68" y="312" width="186" height="120" rx="14" fill="#F4F5F2"/>
    <rect x="267" y="312" width="186" height="120" rx="14" fill="#F4F5F2"/>
    <rect x="466" y="312" width="186" height="120" rx="14" fill="#F4F5F2"/>
    <rect x="88" y="332" width="40" height="40" rx="12" fill="#22303F"/>
    <rect x="287" y="332" width="40" height="40" rx="12" fill="#22303F"/>
    <rect x="486" y="332" width="40" height="40" rx="12" fill="#22303F"/>
    <path d="M96 356 L108 344 L120 356 Z" fill="#E8862E"/>
    <path d="M295 356 L307 344 L319 356 Z" fill="#E8862E"/>
    <path d="M494 356 L506 344 L518 356 Z" fill="#E8862E"/>
    <rect x="88" y="386" width="120" height="10" rx="5" fill="#C9C9C3"/>
    <rect x="287" y="386" width="120" height="10" rx="5" fill="#C9C9C3"/>
    <rect x="486" y="386" width="120" height="10" rx="5" fill="#C9C9C3"/>
    <rect x="88" y="404" width="88" height="10" rx="5" fill="#E0E0DB"/>
    <rect x="287" y="404" width="88" height="10" rx="5" fill="#E0E0DB"/>
    <rect x="486" y="404" width="88" height="10" rx="5" fill="#E0E0DB"/>
  </g>
  <rect x="40" y="28" width="640" height="452" rx="18" stroke="#D8D8D2" stroke-width="1.5"/>
</svg>
