<svg xmlns="http://www.w3.org/2000/svg" viewBox="0 0 720 480" fill="none" role="img" aria-label="Safe Harbor Press website preview">
  <defs>
    <clipPath id="shframe"><rect x="40" y="28" width="640" height="452" rx="18"/></clipPath>
    <linearGradient id="shsea" x1="0" y1="0" x2="0" y2="1">
      <stop offset="0" stop-color="#1E3A3A"/><stop offset="1" stop-color="#122626"/>
    </linearGradient>
  </defs>
  <rect width="720" height="480" rx="28" fill="#E9EAE6"/>
  <g clip-path="url(#shframe)">
    <rect x="40" y="28" width="640" height="452" rx="18" fill="#FBFAF6"/>
    <!-- chrome bar -->
    <rect x="40" y="28" width="640" height="40" fill="#F1F1EE"/>
    <circle cx="66" cy="48" r="5" fill="#D9D9D4"/>
    <circle cx="84" cy="48" r="5" fill="#D9D9D4"/>
    <circle cx="102" cy="48" r="5" fill="#D9D9D4"/>
    <rect x="240" y="38" width="240" height="20" rx="10" fill="#FFFFFF"/>
    <circle cx="254" cy="48" r="4" fill="#9BE15D"/>
    <rect x="266" y="44" width="150" height="8" rx="4" fill="#D5D5D0"/>
    <!-- hero -->
    <rect x="40" y="68" width="640" height="200" fill="url(#shsea)"/>
    <!-- lighthouse beam motif -->
    <path d="M120 268 L150 160 L180 268 Z" fill="#16302F"/>
    <rect x="142" y="140" width="16" height="30" rx="4" fill="#D9C28F"/>
    <path d="M150 150 L260 110 L260 190 Z" fill="#D9C28F" opacity=".18"/>
    <!-- waves -->
    <path d="M40 252 C 120 240, 200 264, 280 252 C 360 240, 440 264, 520 252 C 600 240, 660 260, 680 252 L680 268 L40 268 Z" fill="#0E1F1F"/>
    <!-- nav -->
    <rect x="68" y="84" width="34" height="34" rx="9" fill="#FBFAF6" opacity=".95"/>
    <path d="M85 92 L94 106 H76 Z" fill="#1E3A3A"/>
    <rect x="438" y="94" width="52" height="12" rx="6" fill="#FFFFFF" opacity=".3"/>
    <rect x="500" y="94" width="52" height="12" rx="6" fill="#FFFFFF" opacity=".3"/>
    <rect x="562" y="88" width="92" height="26" rx="13" fill="#D9C28F"/>
    <!-- headline -->
    <rect x="280" y="140" width="300" height="20" rx="10" fill="#FFFFFF"/>
    <rect x="280" y="170" width="220" height="20" rx="10" fill="#FFFFFF" opacity=".5"/>
    <rect x="280" y="208" width="120" height="28" rx="14" fill="#D9C28F"/>
    <!-- book covers row -->
    <rect x="68" y="292" width="120" height="150" rx="8" fill="#1E3A3A"/>
    <rect x="84" y="312" width="88" height="10" rx="5" fill="#D9C28F"/>
    <rect x="84" y="330" width="64" height="8" rx="4" fill="#FBFAF6" opacity=".5"/>
    <rect x="204" y="292" width="120" height="150" rx="8" fill="#3E4A3A"/>
    <rect x="220" y="312" width="88" height="10" rx="5" fill="#F0E6CF"/>
    <rect x="220" y="330" width="64" height="8" rx="4" fill="#FBFAF6" opacity=".5"/>
    <rect x="340" y="292" width="120" height="150" rx="8" fill="#5A4632"/>
    <rect x="356" y="312" width="88" height="10" rx="5" fill="#F0E6CF"/>
    <rect x="356" y="330" width="64" height="8" rx="4" fill="#FBFAF6" opacity=".5"/>
    <!-- text column -->
    <rect x="492" y="300" width="160" height="12" rx="6" fill="#C9C9C3"/>
    <rect x="492" y="324" width="160" height="8" rx="4" fill="#E0E0DB"/>
    <rect x="492" y="340" width="140" height="8" rx="4" fill="#E0E0DB"/>
    <rect x="492" y="356" width="150" height="8" rx="4" fill="#E0E0DB"/>
    <rect x="492" y="380" width="110" height="26" rx="13" fill="#1E3A3A"/>
  </g>
  <rect x="40" y="28" width="640" height="452" rx="18" stroke="#D8D8D2" stroke-width="1.5"/>
</svg>
