<svg xmlns="http://www.w3.org/2000/svg" viewBox="0 0 720 480" fill="none" role="img" aria-label="Levin Contracting website preview">
  <defs>
    <clipPath id="frame"><rect x="40" y="28" width="640" height="452" rx="18"/></clipPath>
    <linearGradient id="sky" x1="0" y1="0" x2="0" y2="1">
      <stop offset="0" stop-color="#13204A"/><stop offset="1" stop-color="#0A1430"/>
    </linearGradient>
  </defs>
  <!-- backdrop card -->
  <rect width="720" height="480" rx="28" fill="#E9EAE6"/>
  <!-- browser window -->
  <g clip-path="url(#frame)">
    <rect x="40" y="28" width="640" height="452" rx="18" fill="#FFFFFF"/>
    <!-- chrome bar -->
    <rect x="40" y="28" width="640" height="40" fill="#F1F1EE"/>
    <circle cx="66" cy="48" r="5" fill="#D9D9D4"/>
    <circle cx="84" cy="48" r="5" fill="#D9D9D4"/>
    <circle cx="102" cy="48" r="5" fill="#D9D9D4"/>
    <rect x="240" y="38" width="240" height="20" rx="10" fill="#FFFFFF"/>
    <circle cx="254" cy="48" r="4" fill="#9BE15D"/>
    <rect x="266" y="44" width="150" height="8" rx="4" fill="#D5D5D0"/>
    <!-- site hero -->
    <rect x="40" y="68" width="640" height="220" fill="url(#sky)"/>
    <!-- roof silhouette -->
    <path d="M40 288 L200 196 L360 288 Z" fill="#0E1A3D"/>
    <path d="M250 288 L430 178 L610 288 Z" fill="#16254F"/>
    <path d="M470 288 L600 216 L730 288 Z" fill="#0E1A3D"/>
    <!-- nav -->
    <rect x="68" y="84" width="34" height="34" rx="9" fill="#FFFFFF" opacity="0.95"/>
    <path d="M76 106 L85 92 L94 106 Z" fill="#0A1430"/>
    <rect x="438" y="94" width="52" height="12" rx="6" fill="#FFFFFF" opacity="0.35"/>
    <rect x="500" y="94" width="52" height="12" rx="6" fill="#FFFFFF" opacity="0.35"/>
    <rect x="562" y="88" width="92" height="26" rx="13" fill="#9BE15D"/>
    <!-- headline lines -->
    <rect x="68" y="148" width="330" height="22" rx="11" fill="#FFFFFF"/>
    <rect x="68" y="180" width="250" height="22" rx="11" fill="#FFFFFF" opacity="0.55"/>
    <rect x="68" y="222" width="130" height="30" rx="15" fill="#9BE15D"/>
    <rect x="208" y="222" width="130" height="30" rx="15" fill="#FFFFFF" opacity="0.2"/>
    <!-- content cards -->
    <rect x="68" y="312" width="186" height="120" rx="14" fill="#F4F4F1"/>
    <rect x="267" y="312" width="186" height="120" rx="14" fill="#F4F4F1"/>
    <rect x="466" y="312" width="186" height="120" rx="14" fill="#F4F4F1"/>
    <rect x="88" y="332" width="40" height="40" rx="12" fill="#0A1430"/>
    <rect x="287" y="332" width="40" height="40" rx="12" fill="#0A1430"/>
    <rect x="486" y="332" width="40" height="40" rx="12" fill="#0A1430"/>
    <rect x="88" y="386" width="120" height="10" rx="5" fill="#C9C9C3"/>
    <rect x="287" y="386" width="120" height="10" rx="5" fill="#C9C9C3"/>
    <rect x="486" y="386" width="120" height="10" rx="5" fill="#C9C9C3"/>
    <rect x="88" y="404" width="88" height="10" rx="5" fill="#E0E0DB"/>
    <rect x="287" y="404" width="88" height="10" rx="5" fill="#E0E0DB"/>
    <rect x="486" y="404" width="88" height="10" rx="5" fill="#E0E0DB"/>
  </g>
  <rect x="40" y="28" width="640" height="452" rx="18" stroke="#D8D8D2" stroke-width="1.5"/>
</svg>
