<svg xmlns="http://www.w3.org/2000/svg" viewBox="0 0 720 480" fill="none" role="img" aria-label="Another Beautiful Roof website preview">
  <defs>
    <clipPath id="abrframe"><rect x="40" y="28" width="640" height="452" rx="18"/></clipPath>
    <linearGradient id="abrsky" x1="0" y1="0" x2="0" y2="1">
      <stop offset="0" stop-color="#10141C"/><stop offset="1" stop-color="#06080C"/>
    </linearGradient>
  </defs>
  <!-- backdrop card -->
  <rect width="720" height="480" rx="28" fill="#E9EAE6"/>
  <!-- browser window -->
  <g clip-path="url(#abrframe)">
    <rect x="40" y="28" width="640" height="452" rx="18" fill="#06080C"/>
    <!-- chrome bar -->
    <rect x="40" y="28" width="640" height="40" fill="#0D1017"/>
    <circle cx="66" cy="48" r="5" fill="#2A2F3A"/>
    <circle cx="84" cy="48" r="5" fill="#2A2F3A"/>
    <circle cx="102" cy="48" r="5" fill="#2A2F3A"/>
    <rect x="240" y="38" width="240" height="20" rx="10" fill="#151922"/>
    <circle cx="254" cy="48" r="4" fill="#A31621"/>
    <rect x="266" y="44" width="150" height="8" rx="4" fill="#3A404C"/>
    <!-- announce bar -->
    <rect x="40" y="68" width="640" height="18" fill="#0D1017"/>
    <rect x="270" y="74" width="180" height="6" rx="3" fill="#4A505C"/>
    <!-- hero -->
    <rect x="40" y="86" width="640" height="230" fill="url(#abrsky)"/>
    <!-- ABR twin-peak mark -->
    <g transform="translate(66, 100) scale(0.34)" fill="#F5F6F8">
      <path d="M8 92 L41 14 L27 60 L33 63 L48 16 L57 5 L92 92 L69 92 L51 48 L33 92 Z"/>
    </g>
    <rect x="106" y="112" width="130" height="9" rx="4.5" fill="#F5F6F8"/>
    <!-- nav links -->
    <rect x="470" y="110" width="44" height="8" rx="4" fill="#4A505C"/>
    <rect x="524" y="110" width="44" height="8" rx="4" fill="#4A505C"/>
    <rect x="578" y="104" width="76" height="22" rx="4" fill="none" stroke="#F5F6F8" stroke-width="1.5"/>
    <!-- red rule + mono kicker -->
    <rect x="66" y="168" width="34" height="4" fill="#A31621"/>
    <rect x="108" y="166" width="110" height="7" rx="3.5" fill="#9EA8B7"/>
    <!-- big uppercase headline bars -->
    <rect x="66" y="190" width="380" height="26" fill="#F5F6F8"/>
    <rect x="66" y="224" width="290" height="26" fill="#F5F6F8" opacity="0.85"/>
    <!-- ghost + solid buttons -->
    <rect x="66" y="270" width="120" height="28" rx="3" fill="#A31621"/>
    <rect x="196" y="270" width="120" height="28" rx="3" fill="none" stroke="#4A505C" stroke-width="1.5"/>
    <!-- roof ridge silhouette -->
    <path d="M420 316 L540 240 L680 316 Z" fill="#0D1017"/>
    <path d="M500 316 L610 250 L720 316 Z" fill="#151922"/>
    <!-- system panels -->
    <rect x="66" y="336" width="190" height="118" rx="6" fill="#0D1017"/>
    <rect x="266" y="336" width="190" height="118" rx="6" fill="#0D1017"/>
    <rect x="466" y="336" width="190" height="118" rx="6" fill="#0D1017"/>
    <rect x="66" y="336" width="190" height="3" fill="#A31621"/>
    <rect x="266" y="336" width="190" height="3" fill="#A31621"/>
    <rect x="466" y="336" width="190" height="3" fill="#A31621"/>
    <rect x="82" y="356" width="96" height="10" rx="3" fill="#F5F6F8"/>
    <rect x="282" y="356" width="96" height="10" rx="3" fill="#F5F6F8"/>
    <rect x="482" y="356" width="96" height="10" rx="3" fill="#F5F6F8"/>
    <rect x="82" y="378" width="140" height="7" rx="3.5" fill="#4A505C"/>
    <rect x="282" y="378" width="140" height="7" rx="3.5" fill="#4A505C"/>
    <rect x="482" y="378" width="140" height="7" rx="3.5" fill="#4A505C"/>
    <rect x="82" y="392" width="118" height="7" rx="3.5" fill="#3A404C"/>
    <rect x="282" y="392" width="118" height="7" rx="3.5" fill="#3A404C"/>
    <rect x="482" y="392" width="118" height="7" rx="3.5" fill="#3A404C"/>
    <rect x="82" y="420" width="64" height="18" rx="2" fill="none" stroke="#A31621" stroke-width="1.5"/>
    <rect x="282" y="420" width="64" height="18" rx="2" fill="none" stroke="#A31621" stroke-width="1.5"/>
    <rect x="482" y="420" width="64" height="18" rx="2" fill="none" stroke="#A31621" stroke-width="1.5"/>
  </g>
  <rect x="40" y="28" width="640" height="452" rx="18" stroke="#D8D8D2" stroke-width="1.5"/>
</svg>
